# xmcd CD database file
#
# Track frame offsets:
#	150
#	19197
#	34952
#	45680
#	54439
#	73375
#	87600
#	104125
#	118400
#	135412
#	140082
#	158622
#	173495
#
# Disc length: 2563 seconds
#
# Revision: 0
# Processed by: cddbd v1.5.2PL0 Copyright (c) Steve Scherf et al.
# Submitted via: CDex 1.51
#
DISCID=c10a010d
DTITLE=Bill Wharton (The Sauce Boss) - Come And Get It!
DYEAR=2004
DGENRE=Blues
TTITLE0=The Gumbo Song
TTITLE1=Down In The Valley
TTITLE2=Dirty Rice
TTITLE3=I Broke My Heart
TTITLE4=Four Letter Word
TTITLE5=Locals
TTITLE6=Sun
TTITLE7=Little Miss Heartbreak
TTITLE8=The Bottom Of Our Love
TTITLE9=Whatcha You Gonna Do
TTITLE10=We're On Our Way
TTITLE11=Going Back To Florida
TTITLE12=Four Letter Word (Instrumental)
EXTD=YEAR: 2004
EXTT0=
EXTT1=
EXTT2=
EXTT3=
EXTT4=
EXTT5=
EXTT6=
EXTT7=
EXTT8=
EXTT9=
EXTT10=
EXTT11=
EXTT12=
PLAYORDER=
